<svg version="1.2" baseProfile="tiny-ps" xmlns="http://www.w3.org/2000/svg" viewBox="0 0 1211 1619" width="1211" height="1619">
	<title>HUM_BIG copy-svg</title>
	<style>
		tspan { white-space:pre }
		.shp0 { fill: #4e8416 } 
	</style>
	<g id="layer1">
		<path id="path9738" fill-rule="evenodd" class="shp0" d="M0.78 1618.5C0.78 1618.5 0.78 14.33 0.78 0.78L259.04 0.78C286.24 0.78 299.85 27.98 306.65 41.53L306.65 537.75C306.65 598.9 354.2 653.31 422.2 653.31L911.58 653.31L911.58 41.53C911.58 21.18 931.98 0.78 952.38 0.78L1210.7 0.78C1210.7 14.38 1210.7 1618.5 1210.7 1618.5C1197.1 1618.5 952.38 1618.5 952.38 1618.5C931.98 1618.5 911.58 1598.1 911.58 1577.69L911.58 1027.12C911.58 959.17 857.23 897.97 775.67 897.97L299.85 897.97L299.85 1577.69C299.85 1598.1 279.44 1618.5 259.04 1618.5C259.04 1618.5 41.53 1618.5 0.78 1618.5Z" />
	</g>
</svg>